# xmcd CD database file
#
# Track frame offsets:
#	187
#	22912
#	40107
#	63120
#	85720
#	105025
#	124467
#	146555
#	165010
#	182490
#
# Disc length: 2721 seconds
#
# Revision: 2
# Processed by: cddbd v1.5PL3 Copyright (c) Steve Scherf et al.
# Submitted via: CDex 1.50beta9
#
DISCID=680a9f0a
DTITLE=Wink - Velvet
DYEAR=1990
DGENRE=JPop
TTITLE0=Sexy Music (Remix)
TTITLE1=Rainy Lonely Pavement
TTITLE2=夏服のジュリエット -Dos Hombres-
TTITLE3=Unshakable
TTITLE4=雨に願いを
TTITLE5=銀星倶楽部 -I'm In Mood For Dancing-
TTITLE6=あの夏のシーガル -Cherish-
TTITLE7=I'm Gonna Knock On Your Door
TTITLE8=贅沢な孤独
TTITLE9=月夜の真珠貝
EXTD=YEAR: 1990
EXTT0=
EXTT1=
EXTT2=
EXTT3=
EXTT4=
EXTT5=
EXTT6=
EXTT7=
EXTT8=
EXTT9=
PLAYORDER=
